# xmcd CD database file
#
# Track frame offsets:
#	150
#	21197
#	36427
#	50358
#	83314
#	93852
#	111195
#	122542
#	146350
#	161157
#	179180
#	200337
#	214735
#	235917
#	261675
#	288485
#	319798
#	332525
#
# Disc length: 4652 seconds
#
# Revision: 0
# Processed by: cddbd v1.5.2PL0 Copyright (c) Steve Scherf et al.
# Submitted via: CDex 1.51
#
DISCID=05122a12
DTITLE=Various Artist - Booklovers Lounge CD1
DYEAR=2011
DGENRE=Jazz
TTITLE0=The Look Of Love - Diana Krall
TTITLE1=The Way You Look Tonight - Tony Bennett
TTITLE2=The Nearness Of You - Norah Jones
TTITLE3=No Ordinary Love - Sade
TTITLE4=Fly Me To The Moon - Astrud Gilberto
TTITLE5=I Can't Make It Alone - Dusty Springfield
TTITLE6=These Arms Of Mine - Otis Redding
TTITLE7=No Lonely Nights - Charlie Haden
TTITLE8=All The Things You Are - Ella Fitzgerald
TTITLE9=Someone To Watch Over Me - Sarah Vaughan
TTITLE10=But Beautiful - Stan Getz, Bill Evans
TTITLE11=Strange Fruit - Billie Holiday
TTITLE12=My Funny Valentine - Gerry Mulligan
TTITLE13=Goodbye Pork Pie Hat - Charles Mingus
TTITLE14=Round Midnight - Miles Davis
TTITLE15=White Rabbit - George Benson
TTITLE16=Blue Velvet - Bobby Vinton
TTITLE17=Unchained Melody - The Righteous Brothers
EXTD=YEAR: 2011
EXTT0=
EXTT1=
EXTT2=
EXTT3=
EXTT4=
EXTT5=
EXTT6=
EXTT7=
EXTT8=
EXTT9=
EXTT10=
EXTT11=
EXTT12=
EXTT13=
EXTT14=
EXTT15=
EXTT16=
EXTT17=
PLAYORDER=
